<?xml version="1.0" encoding="UTF-8"?><svg id="Capa_2" xmlns="http://www.w3.org/2000/svg" viewBox="0 0 230.67 83.28"><defs><style>.cls-1{fill:#575756;}.cls-2{fill:#e30613;}.cls-3{fill:#f7aa2d;}</style></defs><g id="Capa_1-2"><g><g><g><path class="cls-1" d="M88.53,18.92c1.2,0,2.24-.2,3.1-.61,.87-.4,1.77-1.05,2.72-1.94l2.25,2.31c-2.19,2.42-4.84,3.64-7.97,3.64s-5.72-1.01-7.78-3.02c-2.06-2.01-3.09-4.55-3.09-7.63s1.05-5.64,3.15-7.69c2.1-2.05,4.75-3.07,7.95-3.07s5.88,1.18,8.03,3.55l-2.22,2.42c-.99-.95-1.92-1.61-2.79-1.98-.88-.37-1.91-.56-3.09-.56-2.09,0-3.84,.68-5.26,2.03-1.42,1.35-2.13,3.07-2.13,5.17s.7,3.85,2.11,5.26c1.41,1.41,3.08,2.11,5.01,2.11Z"/><path class="cls-1" d="M113.1,19.97c-1.58,1.57-3.55,2.35-5.91,2.35s-4.34-.78-5.91-2.35c-1.58-1.57-2.37-3.48-2.37-5.75s.79-4.18,2.37-5.75c1.58-1.57,3.55-2.35,5.91-2.35s4.34,.78,5.91,2.35c1.58,1.57,2.37,3.48,2.37,5.75s-.79,4.18-2.37,5.75Zm-9.48-2.04c.94,.96,2.12,1.43,3.56,1.43s2.63-.48,3.56-1.43c.94-.96,1.4-2.19,1.4-3.71s-.47-2.75-1.4-3.71c-.94-.96-2.12-1.43-3.56-1.43s-2.63,.48-3.56,1.43c-.94,.96-1.4,2.19-1.4,3.71s.47,2.76,1.4,3.71Z"/><path class="cls-1" d="M122.53,13.57v8.52h-3.31V6.35h3.31v2.87c.47-.97,1.19-1.72,2.14-2.28,.96-.55,1.99-.83,3.09-.83,2.48,0,4.17,1.02,5.06,3.07,1.56-2.05,3.5-3.07,5.83-3.07,1.77,0,3.21,.54,4.3,1.63,1.09,1.08,1.64,2.65,1.64,4.7v9.64h-3.31V13.45c0-2.9-1.2-4.35-3.61-4.35-1.12,0-2.1,.36-2.94,1.08-.84,.72-1.28,1.77-1.32,3.15v8.75h-3.31V13.45c0-1.5-.27-2.6-.8-3.3-.53-.7-1.37-1.05-2.51-1.05s-2.14,.38-2.99,1.14c-.85,.76-1.27,1.87-1.27,3.33Z"/><path class="cls-1" d="M157.63,6.11c2.11,0,3.91,.73,5.41,2.19,1.5,1.46,2.25,3.4,2.25,5.83s-.74,4.4-2.23,5.91c-1.49,1.52-3.22,2.28-5.2,2.28s-3.76-.87-5.34-2.6v8.1h-3.31V6.35h3.31v2.75c1.3-1.99,3.01-2.99,5.12-2.99Zm-5.17,8.13c0,1.5,.45,2.73,1.36,3.68,.91,.96,2.01,1.43,3.31,1.43s2.43-.47,3.4-1.42c.97-.95,1.45-2.17,1.45-3.68s-.47-2.76-1.42-3.76c-.95-.99-2.08-1.49-3.4-1.49s-2.43,.5-3.34,1.49c-.91,1-1.36,2.24-1.36,3.74Z"/><path class="cls-1" d="M177.32,9.45c-1.64,0-2.87,.53-3.7,1.6-.83,1.06-1.24,2.49-1.24,4.29v6.74h-3.31V6.35h3.31v3.16c.53-.99,1.26-1.79,2.17-2.42,.92-.63,1.89-.96,2.91-.98l.03,3.34h-.18Z"/><path class="cls-1" d="M193.41,22.08h-3.02v-2.1c-1.3,1.56-3.05,2.34-5.23,2.34-1.64,0-2.99-.46-4.07-1.39-1.07-.93-1.61-2.16-1.61-3.71s.57-2.71,1.71-3.47c1.14-.77,2.69-1.15,4.64-1.15h4.29v-.59c0-2.09-1.16-3.13-3.49-3.13-1.46,0-2.98,.53-4.55,1.6l-1.48-2.07c1.91-1.52,4.08-2.28,6.51-2.28,1.85,0,3.37,.47,4.54,1.4,1.17,.94,1.76,2.41,1.76,4.42v10.14Zm-3.31-5.85v-1.33h-3.73c-2.39,0-3.58,.75-3.58,2.25,0,.77,.3,1.36,.89,1.76,.59,.4,1.41,.61,2.47,.61s1.98-.3,2.76-.89c.79-.59,1.18-1.39,1.18-2.39Z"/></g><g><path class="cls-2" d="M85.37,33.23h-9.14v-6.68h26.66v6.68h-9.1v23.09h-8.42v-23.09Z"/><path class="cls-2" d="M129.42,33.27v23.05h-7.7v-2.47c-.85,.94-1.87,1.64-3.06,2.13s-2.45,.72-3.78,.72c-2.98,0-5.35-.88-7.12-2.64-1.77-1.76-2.66-4.39-2.66-7.91v-12.88h8.08v11.57c0,1.73,.33,2.99,.98,3.78,.65,.79,1.6,1.19,2.85,1.19s2.32-.45,3.13-1.34c.81-.89,1.21-2.26,1.21-4.1v-11.1h8.08Z"/><path class="cls-2" d="M134.99,26.55h8.42v23.09h14.2v6.68h-22.62V26.55Z"/><path class="cls-2" d="M165.35,55.17c-1.98-1.02-3.54-2.44-4.66-4.25-1.12-1.81-1.68-3.87-1.68-6.17s.56-4.31,1.68-6.12c1.12-1.81,2.66-3.22,4.64-4.23,1.97-1.01,4.2-1.51,6.7-1.51s4.73,.5,6.72,1.51c1.98,1.01,3.53,2.41,4.64,4.21s1.66,3.85,1.66,6.14-.55,4.35-1.66,6.17c-1.11,1.81-2.65,3.23-4.64,4.25-1.98,1.02-4.22,1.53-6.72,1.53s-4.69-.51-6.68-1.53Zm10.16-6.36c.91-.98,1.36-2.33,1.36-4.06s-.45-3.03-1.36-4c-.91-.96-2.07-1.45-3.49-1.45s-2.58,.48-3.49,1.45c-.91,.96-1.36,2.3-1.36,4s.45,3.08,1.36,4.06c.91,.98,2.07,1.47,3.49,1.47s2.58-.49,3.49-1.47Z"/><path class="cls-2" d="M204.69,55.39c-.68,.42-1.51,.75-2.49,.98-.98,.23-2.02,.34-3.13,.34-3,0-5.32-.74-6.93-2.21-1.62-1.47-2.42-3.67-2.42-6.59v-7.74h-3.36v-6.04h3.36v-6h8.08v6h5.27v6.04h-5.27v7.65c0,.82,.22,1.47,.66,1.94,.44,.47,1.03,.7,1.77,.7,.93,0,1.76-.24,2.47-.72l2,5.66Z"/><path class="cls-2" d="M230.54,46.84h-16.75c.34,1.19,1,2.1,1.98,2.74,.98,.64,2.2,.96,3.68,.96,1.11,0,2.06-.16,2.87-.47,.81-.31,1.62-.82,2.45-1.53l4.25,4.42c-2.24,2.5-5.51,3.74-9.82,3.74-2.69,0-5.06-.51-7.1-1.53-2.04-1.02-3.62-2.44-4.74-4.25-1.12-1.81-1.68-3.87-1.68-6.17s.55-4.3,1.64-6.1c1.09-1.8,2.6-3.21,4.53-4.23,1.93-1.02,4.1-1.53,6.51-1.53s4.38,.47,6.25,1.42c1.87,.95,3.35,2.32,4.44,4.13s1.64,3.93,1.64,6.4c0,.06-.04,.72-.13,2Zm-15.29-7.14c-.84,.71-1.37,1.67-1.59,2.89h9.44c-.23-1.22-.76-2.18-1.59-2.89-.84-.71-1.88-1.06-3.13-1.06s-2.29,.35-3.13,1.06Z"/></g><path class="cls-2" d="M51.62,55.73c-1.25-1.26-2.51-2.51-3.76-3.77-1.06-1.06-2.12-2.12-3.22-3.22,2.24-1.5,4.45-2.98,6.67-4.44,.53-.35,.87-.8,.78-1.46-.1-.67-.55-1.01-1.18-1.2-5.43-1.62-10.85-3.25-16.28-4.88-3.59-1.08-7.19-2.16-10.78-3.24-.3-.09-.61-.16-.93-.07-.86,.23-1.21,.99-.91,1.98,2.11,7.02,4.21,14.05,6.32,21.07,.6,2.01,1.21,4.02,1.81,6.03,.18,.6,.55,1.01,1.18,1.09,.62,.08,1.08-.2,1.4-.72,.08-.12,.16-.24,.24-.36,1.41-2.12,2.82-4.23,4.3-6.45,.11,.16,.19,.31,.3,.42,2.2,2.21,4.41,4.42,6.62,6.62,.67,.67,1.45,.68,2.11,.01,1.78-1.78,3.57-3.56,5.35-5.34,.65-.65,.65-1.43,0-2.08Zm-3.13,1.34c-1.01,.99-2.02,1.99-3.01,3.01-.21,.22-.32,.2-.53,0-2.27-2.29-4.55-4.56-6.83-6.83-.88-.88-1.75-.79-2.45,.25-1.15,1.72-2.3,3.45-3.45,5.17-.08,.12-.16,.23-.29,.4-2.23-7.43-4.44-14.79-6.67-22.22,7.42,2.23,14.79,4.44,22.16,6.65-.05,.18-.22,.23-.35,.31-1.73,1.16-3.47,2.32-5.21,3.47-.98,.66-1.07,1.55-.23,2.39,2.28,2.28,4.55,4.56,6.84,6.82,.25,.24,.22,.36,0,.59Z"/><path class="cls-3" d="M66.83,25.25L35.69,.6c-1.02-.81-2.46-.81-3.48,0L1.06,25.25c-.94,.74-1.3,1.99-.91,3.12,.39,1.13,1.45,1.88,2.65,1.88h5.63v13.63l5.6,3.97V30.25H53.87v10l5.6-3.94v-6.06h5.63c1.19,0,2.25-.75,2.65-1.88,.39-1.13,.03-2.38-.91-3.12ZM33.95,6.37l23.09,18.27H10.86L33.95,6.37Z"/></g><g><path class="cls-1" d="M77.65,77.15c-.54-.53-.8-1.2-.8-2.01s.27-1.49,.8-1.99c.53-.51,1.19-.76,1.98-.76s1.44,.25,1.98,.76,.8,1.17,.8,1.99-.27,1.47-.8,2.01-1.19,.8-1.98,.8-1.44-.27-1.98-.8Z"/><path class="cls-1" d="M98.47,63.07c1.17,.66,2.1,1.59,2.77,2.78,.67,1.19,1,2.58,1,4.17s-.33,2.98-1,4.17c-.67,1.19-1.59,2.12-2.77,2.78-1.18,.66-2.48,.99-3.91,.99-1.97,0-3.52-.62-4.64-1.86v7.19h-4.47v-20.98h4.27v1.78c1.11-1.34,2.72-2.01,4.84-2.01,1.43,0,2.74,.33,3.91,.99Zm-1.86,10.06c.74-.77,1.1-1.81,1.1-3.11s-.37-2.34-1.1-3.11-1.68-1.16-2.82-1.16-2.09,.39-2.82,1.16c-.74,.77-1.1,1.81-1.1,3.11s.37,2.33,1.1,3.11c.73,.77,1.68,1.16,2.82,1.16s2.09-.39,2.82-1.16Z"/><path class="cls-1" d="M120.23,71.28h-11.66c.21,.96,.71,1.71,1.49,2.26,.78,.55,1.76,.83,2.92,.83,.8,0,1.51-.12,2.14-.36,.62-.24,1.2-.62,1.73-1.13l2.38,2.58c-1.45,1.66-3.57,2.49-6.36,2.49-1.74,0-3.28-.34-4.61-1.02-1.34-.68-2.37-1.62-3.09-2.82-.73-1.2-1.09-2.57-1.09-4.1s.36-2.87,1.07-4.08c.72-1.21,1.7-2.16,2.95-2.84,1.25-.68,2.65-1.02,4.2-1.02s2.88,.33,4.1,.97c1.22,.65,2.18,1.58,2.88,2.79,.7,1.21,1.05,2.62,1.05,4.23,0,.06-.03,.46-.09,1.2Zm-10.46-4.96c-.69,.57-1.11,1.36-1.26,2.35h7.59c-.15-.97-.57-1.75-1.26-2.33s-1.53-.87-2.52-.87-1.86,.29-2.55,.86Z"/></g></g></g></svg>